<svg xmlns="http://www.w3.org/2000/svg" viewBox="0 0 80 130" width="80" height="130">
  <ellipse cx="40" cy="124" rx="22" ry="4" fill="rgba(0,0,0,.3)"/>
  <path d="M18 70c0-4 4-8 22-8s22 4 22 8v48c0 6-8 10-22 10s-22-4-22-10z" fill="#c4a574"/>
  <path d="M22 72c2-3 8-6 18-6s16 3 18 6v8c-4-3-10-5-18-5s-14 2-18 5z" fill="#e2c89a" opacity=".45"/>
  <text x="40" y="104" text-anchor="middle" font-size="16" font-family="Georgia,serif" font-weight="700" fill="#2a1c12">XXX</text>
  <path d="M26 66 L40 20 L54 66 Z" fill="#4a2414"/>
  <path d="M30 64 L40 26 L50 64 Z" fill="#6b3a1e"/>
  <ellipse cx="40" cy="22" rx="8" ry="4.5" fill="#1a0c08"/>
  <path d="M50 28c10 5 13 18 8 28" fill="none" stroke="#3d1c10" stroke-width="7" stroke-linecap="round"/>
  <rect x="36" y="10" width="7" height="13" rx="1" fill="#6b5340"/>
  <path d="M36 12h16v2.5H43" fill="#8a7358"/>
</svg>
